<svg viewBox="0 0 32 32" xmlns="http://www.w3.org/2000/svg" class="GlyphComponent-hhcrk7-0 cYhFFT">
    <path d="M16.004.063C7.213.063.063 7.215.063 16.004c0 8.785 7.15 15.934 15.941 15.934 8.787 0 15.934-7.149 15.934-15.934 0-8.789-7.147-15.941-15.934-15.941zm7.976 18.103h-5.819v5.821a2.168 2.168 0 0 1-4.336 0v-5.821h-5.81a2.163 2.163 0 0 1-2.161-2.161 2.17 2.17 0 0 1 2.161-2.172h5.81V8.019c0-1.196.974-2.168 2.17-2.168a2.17 2.17 0 0 1 2.166 2.168v5.814h5.819c1.194 0 2.166.972 2.166 2.163a2.172 2.172 0 0 1-2.166 2.17z"></path>
</svg>